<svg xmlns="http://www.w3.org/2000/svg" viewBox="0 0 200 200">
  <!-- Outer orange ring -->
  <circle cx="100" cy="100" r="97" fill="#f25a00"/>
  <!-- Dark navy ring -->
  <circle cx="100" cy="100" r="90" fill="#1a2456"/>
  <!-- Light blue background -->
  <circle cx="100" cy="100" r="83" fill="#7ba7d6"/>
  <!-- Bird/dove silhouette (simplified) -->
  <path d="M100 55 C115 55, 135 65, 145 80 C150 90, 148 100, 140 108 C130 118, 115 120, 100 118 C85 116, 68 108, 62 95 C56 82, 62 68, 75 60 C83 55, 92 55, 100 55Z" fill="#1a2456" opacity="0.7"/>
  <path d="M90 70 C100 65, 120 68, 132 78 C138 85, 136 95, 128 102 C118 110, 102 112, 88 108 C74 104, 64 93, 66 82 C68 72, 78 67, 90 70Z" fill="#5a8ac8" opacity="0.5"/>
  <!-- Eye -->
  <circle cx="118" cy="82" r="4" fill="#1a2456"/>
  <circle cx="119" cy="81" r="1.5" fill="white"/>
</svg>
